# xmcd CD database file
#
# Track frame offsets:
#	150
#	7762
#	17332
#	29742
#	42575
#	50437
#	60732
#	69952
#	79275
#	86700
#	96970
#	106517
#
# Disc length: 1580 seconds
#
# Revision: 0
# Processed by: cddbd v1.5.1PL0 Copyright (c) Steve Scherf et al.
# Submitted via: CDex 1.51
#
DISCID=8d062a0c
DTITLE=Peggy Lee - With the avid Barbour and Billy May Bands
DYEAR=1900
DGENRE=Jazz
TTITLE0=Riding High
TTITLE1=Let There Be Love
TTITLE2=I've Got a Right To Sing The Blues
TTITLE3=Oh, What a Beautiful Morning
TTITLE4=It's a Good Day
TTITLE5=What Is This Thing Called Love
TTITLE6=Love is Just Around The Corner
TTITLE7=Deed I Do
TTITLE8=Do I Love You
TTITLE9=Just One Of Those Things
TTITLE10=You
TTITLE11=I've Got The World On a String
EXTD=
EXTT0=
EXTT1=
EXTT2=
EXTT3=
EXTT4=
EXTT5=
EXTT6=
EXTT7=
EXTT8=
EXTT9=
EXTT10=
EXTT11=
PLAYORDER=
